<?xml version="1.0" encoding="UTF-8" standalone="no"?>
<!-- Created with Inkscape (http://www.inkscape.org/) -->

<svg
   xmlns:dc="http://purl.org/dc/elements/1.1/"
   xmlns:cc="http://creativecommons.org/ns#"
   xmlns:rdf="http://www.w3.org/1999/02/22-rdf-syntax-ns#"
   xmlns:svg="http://www.w3.org/2000/svg"
   xmlns="http://www.w3.org/2000/svg"
   xmlns:sodipodi="http://sodipodi.sourceforge.net/DTD/sodipodi-0.dtd"
   xmlns:inkscape="http://www.inkscape.org/namespaces/inkscape"
   width="600"
   height="600"
   viewBox="0 0 600.00001 600.00001"
   id="svg2"
   version="1.1"
   inkscape:version="0.91 r13725"
   sodipodi:docname="html5.svg">
  <defs
     id="defs4" />
  <sodipodi:namedview
     id="base"
     pagecolor="#ffffff"
     bordercolor="#666666"
     borderopacity="1.0"
     inkscape:pageopacity="0.0"
     inkscape:pageshadow="2"
     inkscape:zoom="0.7"
     inkscape:cx="315.01512"
     inkscape:cy="355.61364"
     inkscape:document-units="px"
     inkscape:current-layer="layer1"
     showgrid="false"
     units="px"
     inkscape:window-width="1440"
     inkscape:window-height="851"
     inkscape:window-x="1"
     inkscape:window-y="0"
     inkscape:window-maximized="0" />
  <metadata
     id="metadata7">
    <rdf:RDF>
      <cc:Work
         rdf:about="">
        <dc:format>image/svg+xml</dc:format>
        <dc:type
           rdf:resource="http://purl.org/dc/dcmitype/StillImage" />
        <dc:title></dc:title>
      </cc:Work>
    </rdf:RDF>
  </metadata>
  <g
     inkscape:label="logo"
     inkscape:groupmode="layer"
     id="layer1"
     transform="translate(0,-452.36216)">
    <g
       inkscape:groupmode="layer"
       id="layer3"
       inkscape:label="bg"
       style="display:inline">
      <rect
         style="fill:#52b93e;fill-opacity:0.71974523;stroke:none"
         id="rect4864"
         width="600"
         height="600"
         x="0"
         y="452.36215" />
    </g>
    <g
       inkscape:label="shadow"
       id="g4874"
       inkscape:groupmode="layer"
       style="display:inline">
      <path
         style="fill:#2b6121;fill-opacity:0.71974522;stroke:none"
         d="m 180.81641,615.97544 22.22461,232.33598 133.62304,204.05078 263.33594,0 0,-275.01758 -192.9082,-161.36918 -226.27539,0 z"
         id="rect4876"
         inkscape:connector-curvature="0" />
    </g>
    <g
       id="g4047"
       transform="translate(41.005161,489.29609)">
      <path
         id="path4037"
         d="m 138.96954,125.79237 114,0 0,45.4 -64.2,0 4.2,46.5 60,0 0,45.3 -101.6,0 m 2,22.8 45.6,0 3.2,36.3 50.8,13.6 0,47.4 -93.2,-26"
         inkscape:connector-curvature="0"
         style="fill:#ffffff;fill-opacity:0.71974523" />
      <path
         id="path4039"
         d="m 366.56954,125.79237 -113.8,0 0,45.4 109.6,0 m -4.1,46.5 -105.5,0 0,45.4 56,0 -5.3,59 -50.7,13.6 0,47.2 93,-25.8"
         inkscape:connector-curvature="0"
         style="fill:#ffffff;fill-opacity:0.3566879" />
    </g>
    <g
       style="font-style:normal;font-weight:normal;font-size:40px;line-height:125%;font-family:sans-serif;letter-spacing:0.04px;word-spacing:0px;fill:#000000;fill-opacity:1;stroke:none;stroke-width:1px;stroke-linecap:butt;stroke-linejoin:miter;stroke-opacity:1"
       id="text4954">
      <path
         d="m 191.06863,543.20203 3.94532,0 0,11.95312 14.33593,0 0,-11.95312 3.94532,0 0,29.16015 -3.94532,0 0,-13.88672 -14.33593,0 0,13.88672 -3.94532,0 0,-29.16015 z"
         style="letter-spacing:33.27001572px"
         id="path4959" />
      <path
         d="m 250.37381,543.20203 24.66796,0 0,3.32031 -10.35156,0 0,25.83984 -3.96484,0 0,-25.83984 -10.35156,0 0,-3.32031 z"
         style="letter-spacing:33.27001572px"
         id="path4961" />
      <path
         d="m 312.21804,543.20203 5.87891,0 7.4414,19.84375 7.48047,-19.84375 5.87891,0 0,29.16015 -3.84766,0 0,-25.60547 -7.51953,20 -3.96484,0 -7.51953,-20 0,25.60547 -3.82813,0 0,-29.16015 z"
         style="letter-spacing:33.27001572px"
         id="path4963" />
      <path
         d="m 379.94118,543.20203 3.94531,0 0,25.83984 14.19922,0 0,3.32031 -18.14453,0 0,-29.16015 z"
         style="letter-spacing:33.27001572px"
         id="path4965" />
    </g>
  </g>
</svg>
